# xmcd
#
# Track frame offsets:
#	225
#	20257
#	33052
#	47321
#	64177
#	78146
#	90943
#	111664
#	130993
#	149196
#	167177
#	185357
#	200309
#	214131
#	229711
#	245766
#	261369
#	277631
#
# Disc length: 3903 seconds
#
# Revision: 0
# Processed by: cddbd v1.5.1PL0 Copyright (c) Steve Scherf et al.
# Submitted via: dBpowerAMP V4.0
#
DISCID=f80f3c12
DTITLE=Urszula Sipinska - Antologia cz. 2
DYEAR=1998
DGENRE=Country
TTITLE0=Zabaw sie w moj swiat
TTITLE1=Dom byl zawwze pelen gosci
TTITLE2=Wypozyczalnia snow
TTITLE3=Wez kolorowy film
TTITLE4=Buty lila-roz
TTITLE5=Muzyk, muzyk
TTITLE6=Miekko i czule
TTITLE7=Male pol godziny
TTITLE8=Nie mow mi, ze kochasz
TTITLE9=Sa takie dni w tygodniu
TTITLE10=Mam tylko ciebie
TTITLE11=A kiedy ludziom ludzi brak
TTITLE12=Sentymentalny dzien
TTITLE13=Komiksowy swiat
TTITLE14=Szalala, zabawa trwa
TTITLE15=Dla wszystkich cierpliwych bab
TTITLE16=Nie zapomnialam
TTITLE17=Znowu jestem dzis w podrozy
EXTD=
EXTT0=
EXTT1=
EXTT2=
EXTT3=
EXTT4=
EXTT5=
EXTT6=
EXTT7=
EXTT8=
EXTT9=
EXTT10=
EXTT11=
EXTT12=
EXTT13=
EXTT14=
EXTT15=
EXTT16=
EXTT17=
PLAYORDER=
